<?xml version="1.0" standalone="no"?>
<!DOCTYPE svg PUBLIC "-//W3C//DTD SVG 20010904//EN"
 "http://www.w3.org/TR/2001/REC-SVG-20010904/DTD/svg10.dtd">
<svg version="1.0" xmlns="http://www.w3.org/2000/svg"
 width="1162.000000pt" height="1280.000000pt" viewBox="0 0 1162.000000 1280.000000"
 preserveAspectRatio="xMidYMid meet">
<metadata>
Created by potrace 1.15, written by Peter Selinger 2001-2017
</metadata>
<g transform="translate(0.000000,1280.000000) scale(0.100000,-0.100000)"
fill="#000000" stroke="none">
<path d="M3175 12794 c-144 -7 -496 -34 -690 -54 -104 -11 -197 -20 -205 -21
-32 -1 14 -10 275 -49 1226 -186 1615 -287 2017 -523 73 -43 288 -192 288
-200 0 -1 -107 0 -237 2 -975 15 -2019 -259 -3178 -832 -231 -114 -617 -319
-611 -324 1 -2 47 15 102 37 285 117 741 281 989 355 141 43 407 106 400 95
-3 -4 -17 -11 -32 -14 -14 -4 -80 -32 -147 -62 -741 -336 -1430 -998 -2064
-1981 -39 -62 -72 -115 -72 -118 0 -3 42 31 93 76 428 380 947 755 1383 999
133 75 363 190 324 163 -224 -160 -358 -273 -541 -460 -185 -189 -315 -348
-459 -563 -222 -331 -444 -771 -597 -1183 -53 -144 -163 -471 -159 -475 2 -1
24 41 50 94 59 123 187 346 281 490 376 577 872 1038 1466 1363 42 22 79 41
83 41 5 0 -36 -46 -89 -102 -499 -525 -887 -1285 -1104 -2165 -27 -110 -83
-381 -110 -538 -25 -142 -93 -695 -87 -702 1 -1 21 75 45 170 138 548 364
1070 659 1522 82 126 261 375 269 375 5 0 -2 -11 -47 -80 -133 -201 -302 -554
-408 -850 -226 -634 -341 -1401 -330 -2205 l3 -250 13 110 c100 855 379 1630
831 2309 74 112 86 126 92 105 3 -15 -10 -69 -38 -149 -150 -425 -255 -930
-298 -1435 -21 -237 -35 -720 -27 -865 l7 -115 8 75 c29 285 106 658 202 980
50 165 69 212 59 145 -3 -22 -9 -94 -13 -160 -5 -66 -17 -172 -27 -236 -17
-112 -17 -122 -1 -245 14 -103 18 -212 19 -544 1 -440 1 -441 38 -55 12 121
23 221 25 223 1 2 17 -43 35 -100 51 -165 142 -401 225 -584 l76 -169 9 -125
c27 -376 82 -684 212 -1188 l53 -203 5 543 c3 380 7 505 12 418 17 -286 89
-657 201 -1035 40 -135 194 -592 208 -615 9 -17 8 9 -22 340 -11 124 -22 257
-24 295 l-4 70 9 -55 c5 -30 14 -86 20 -125 29 -182 105 -554 111 -543 4 7 14
150 23 318 26 496 47 845 51 848 2 2 21 -31 43 -74 29 -58 41 -97 47 -149 18
-176 94 -515 166 -741 38 -120 136 -381 196 -524 74 -175 227 -503 230 -493 3
9 -46 286 -136 766 -28 148 -51 274 -51 279 0 6 45 -65 101 -158 512 -851 978
-1348 1514 -1617 330 -165 657 -250 1262 -327 l162 -20 203 25 c700 88 1074
204 1454 454 548 359 1044 1014 1514 1999 l88 183 6 -93 c3 -51 13 -226 21
-388 9 -162 19 -317 23 -344 l7 -50 23 115 c100 494 143 814 157 1164 l6 150
52 134 c43 110 53 129 55 103 5 -50 -25 -488 -58 -849 -33 -364 -50 -586 -45
-591 6 -6 176 498 226 671 73 254 159 652 159 742 0 16 4 35 8 42 4 6 6 -217
4 -495 -2 -279 -1 -504 1 -502 6 7 52 174 97 360 86 347 131 596 161 883 9 91
17 122 49 190 39 82 86 221 114 332 8 33 36 114 61 180 48 128 115 337 115
364 1 32 17 -12 29 -79 70 -389 141 -843 141 -902 0 -15 4 -28 8 -28 5 0 12
55 16 123 4 67 13 201 21 297 45 553 61 1057 46 1417 -11 263 -33 515 -55 636
-7 37 -10 67 -6 67 4 0 10 -12 13 -27 2 -16 30 -126 61 -245 89 -343 191 -817
261 -1208 48 -265 125 -735 125 -760 0 -14 4 -30 8 -37 24 -37 -17 1080 -58
1602 -39 494 -129 1167 -199 1483 -10 45 -15 82 -11 82 12 0 157 -447 200
-615 51 -200 104 -474 130 -674 11 -85 23 -157 26 -160 9 -9 -3 659 -15 829
-43 597 -162 1194 -320 1610 -37 97 -22 78 40 -50 78 -161 168 -368 214 -495
69 -186 64 -155 -41 240 -156 585 -362 1142 -596 1610 -47 93 -200 366 -250
445 -12 19 46 -30 128 -111 82 -80 188 -179 236 -221 89 -77 282 -228 292
-228 10 0 -143 299 -208 404 -324 529 -790 992 -1298 1290 -197 115 -534 263
-698 306 -102 26 -151 42 -147 46 6 7 191 -21 347 -51 287 -56 583 -144 943
-281 75 -28 137 -49 137 -45 0 20 -291 289 -402 372 -474 354 -1093 598 -1718
679 -254 32 -628 30 -875 -6 -406 -58 -814 -200 -1161 -403 l-51 -30 -93 104
c-169 189 -432 411 -639 539 -424 262 -884 410 -1464 472 -137 14 -635 25
-802 18z m-605 -9356 c0 -100 -2 -179 -5 -176 -11 10 -15 358 -5 358 6 0 10
-69 10 -182z m37 -800 c-3 -7 -5 -2 -5 12 0 14 2 19 5 13 2 -7 2 -19 0 -25z"/>
</g>
</svg>
